<svg width="28" height="28" viewBox="0 0 28 28" fill="none" xmlns="http://www.w3.org/2000/svg">
<g id="Group 11">
<g id="Group 9">
<g id="Group 8">
<path id="Ellipse 11" d="M8.37822 9.76372C9.04674 8.87656 9.91575 8.16021 10.9142 7.67324C11.9126 7.18627 13.0121 6.94252 14.1228 6.96191C15.2335 6.98129 16.3238 7.26327 17.3046 7.78478C18.2854 8.3063 19.1289 9.05254 19.7661 9.9625" stroke="#1B1F29"/>
<path id="Ellipse 14" d="M6.37126 8.25135C7.27846 7.04745 8.45771 6.07536 9.81259 5.41454C11.1675 4.75372 12.6595 4.42295 14.1667 4.44925C15.6739 4.47556 17.1535 4.85821 18.4845 5.56591C19.8155 6.27361 20.9601 7.28627 21.8247 8.52109" stroke="#1B1F29"/>
<path id="Ellipse 12" d="M10.3853 11.2761C10.8151 10.7057 11.3739 10.2451 12.0159 9.93194C12.6579 9.61882 13.3648 9.46209 14.079 9.47456C14.7931 9.48702 15.4942 9.66833 16.1249 10.0037C16.7555 10.339 17.2979 10.8188 17.7076 11.4039" stroke="#1B1F29"/>
<path id="Ellipse 13" d="M12.3923 12.7885C12.5835 12.5348 12.832 12.3299 13.1175 12.1906C13.4031 12.0514 13.7175 11.9817 14.0351 11.9872C14.3528 11.9928 14.6646 12.0734 14.9451 12.2225C15.2256 12.3717 15.4668 12.5851 15.649 12.8453" stroke="#1B1F29"/>
</g>
<circle id="Ellipse 15" cx="14" cy="15.1667" r="1.16667" fill="#1B1F29"/>
</g>
<g id="Group 10">
<path id="Line 12" d="M18 16.0482V14" stroke="#1B1F29" stroke-linecap="round"/>
<path id="Line 13" d="M19.75 16.0621V14.0139" stroke="#1B1F29" stroke-linecap="round"/>
</g>
</g>
</svg>
