<svg width="24" height="29" viewBox="0 0 24 29" fill="none" xmlns="http://www.w3.org/2000/svg">
<path id="basic / location_outline" d="M12.1234 28.3333C10.0995 26.6378 8.2236 24.7791 6.5152 22.7764C3.95145 19.769 0.906984 15.2901 0.906984 11.0221C0.904711 6.56452 3.63778 2.54491 7.83084 0.838981C12.0239 -0.866952 16.8505 0.0770396 20.0583 3.23046C22.1677 5.29302 23.3493 8.09867 23.3399 11.0221C23.3399 15.2901 20.2954 19.769 17.7316 22.7764C16.0232 24.7791 14.1473 26.6378 12.1234 28.3333ZM12.1234 3.15334C7.70086 3.15854 4.11698 6.67846 4.11168 11.0221C4.11168 12.8571 4.95612 16.0345 8.97481 20.7573C9.96528 21.9188 11.0162 23.0293 12.1234 24.0842C13.2307 23.0305 14.2822 21.9217 15.2736 20.762C19.2907 16.0329 20.1352 12.8555 20.1352 11.0221C20.1299 6.67846 16.546 3.15854 12.1234 3.15334ZM12.1234 15.7433C9.46857 15.7433 7.31638 13.6296 7.31638 11.0221C7.31638 8.41462 9.46857 6.30084 12.1234 6.30084C14.7783 6.30084 16.9305 8.41462 16.9305 11.0221C16.9305 12.2742 16.424 13.4751 15.5225 14.3605C14.621 15.2459 13.3983 15.7433 12.1234 15.7433Z" fill="white"/>
</svg>
