<svg width="16" height="12" viewBox="0 0 16 12" fill="none" xmlns="http://www.w3.org/2000/svg">
<g id="Group 13">
<rect id="Rectangle 5" x="4.5" y="0.5" width="7" height="11" rx="0.5" stroke="#1B1F29"/>
<path id="Vector 8" d="M15.5 1.5L14.8825 1.91165C14.426 2.21602 14.362 2.862 14.75 3.25L14.8626 3.36262C15.1924 3.69236 15.138 4.24133 14.75 4.5V4.5C14.362 4.75867 14.3076 5.30764 14.6374 5.63738L14.8626 5.86262C15.1924 6.19236 15.138 6.74133 14.75 7V7C14.362 7.25867 14.3076 7.80764 14.6374 8.13738L14.75 8.25C15.138 8.638 15.074 9.28398 14.6175 9.58835L14 10" stroke="#1B1F29" stroke-linecap="round"/>
<path id="Vector 9" d="M1 2L1.62758 2.39377C2.0689 2.67068 2.12939 3.28998 1.75 3.64706L1.64476 3.74611C1.3186 4.05308 1.37061 4.58548 1.75 4.82353V4.82353C2.12939 5.06158 2.1814 5.59398 1.85524 5.90095L1.64476 6.09905C1.3186 6.40602 1.37061 6.93842 1.75 7.17647V7.17647C2.12939 7.41452 2.1814 7.94692 1.85524 8.25389L1.75 8.35294C1.37061 8.71002 1.4311 9.32932 1.87242 9.60623L2.5 10" stroke="#1B1F29" stroke-linecap="round"/>
</g>
</svg>
